<?xml version="1.0" encoding="iso-8859-1"?>
<!-- Generator: Adobe Illustrator 19.0.0, SVG Export Plug-In . SVG Version: 6.00 Build 0)  -->
<svg version="1.1" id="Layer_1" xmlns="http://www.w3.org/2000/svg" xmlns:xlink="http://www.w3.org/1999/xlink" x="0px" y="0px"
	 viewBox="0 0 482.086 482.086" style="enable-background:new 0 0 482.086 482.086;" xml:space="preserve">
<g>
	<g>
		<polygon points="117.46,266.704 166.837,306.76 315.287,306.867 364.723,266.883 		"/>
	</g>
</g>
<g>
	<g>
		<path d="M50.566,45.357l-0.121,166.98l47.197,38.288l286.924,0.208l47.266-38.229l0.121-166.971L50.566,45.357z M166.722,81.674
			l149.006,0.108l-0.012,16.063L166.71,97.736L166.722,81.674z M389.122,210.802l-295.981-0.215l0.012-16.063l295.981,0.215
			L389.122,210.802z M389.163,154.719l-295.981-0.215l0.012-16.063l295.981,0.215L389.163,154.719z"/>
	</g>
</g>
<g>
	<g>
		<polygon points="447.936,154.435 447.903,199.606 477.018,176.057 		"/>
	</g>
</g>
<g>
	<g>
		<polygon points="241.291,1.016 202.939,29.405 279.602,29.46 		"/>
	</g>
</g>
<g>
	<g>
		<polygon points="186.655,322.837 199.085,332.921 241.018,366.932 283,332.982 295.445,322.916 		"/>
	</g>
</g>
<g>
	<g>
		<polygon points="0.204,192.264 0,472.81 43.341,440.722 180.92,338.865 		"/>
	</g>
</g>
<g>
	<g>
		<polygon points="301.157,338.952 438.588,441.009 481.882,473.16 482.086,192.614 		"/>
	</g>
</g>
<g>
	<g>
		<polygon points="5.305,175.719 34.391,199.314 34.424,154.134 		"/>
	</g>
</g>
<g>
	<g>
		<path d="M288.259,349.386l-42.199,34.127c-2.95,2.39-7.162,2.387-10.11-0.007l-42.148-34.188L16.28,480.743l449.309,0.326
			L288.259,349.386z"/>
	</g>
</g>
<g>
</g>
<g>
</g>
<g>
</g>
<g>
</g>
<g>
</g>
<g>
</g>
<g>
</g>
<g>
</g>
<g>
</g>
<g>
</g>
<g>
</g>
<g>
</g>
<g>
</g>
<g>
</g>
<g>
</g>
</svg>
